<?xml version="1.0" encoding="utf-8"?>
<svg xmlns="http://www.w3.org/2000/svg" height="512pt" version="1.1" viewBox="0 0 512 512" width="512pt">
<path d="M 0.00 0.00 L 512.00 0.00 L 512.00 512.00 L 0.00 512.00 L 0.00 0.00 Z" fill="#f0af64" opacity="1.00" stroke="#f0af64" stroke-width="0.25"/>
<path d="M 112.38 96.61 C 127.71 93.60 143.93 99.29 155.26 109.73 C 160.48 114.79 164.26 121.07 168.15 127.15 C 176.02 124.32 183.76 121.10 191.87 118.98 C 201.97 116.09 212.56 115.56 223.00 115.64 C 241.67 115.68 260.34 115.64 279.00 115.60 C 287.84 115.56 296.61 116.96 305.21 118.87 C 316.37 121.36 326.84 126.03 337.52 129.98 C 341.75 121.54 346.73 113.21 354.07 107.08 C 364.65 98.74 378.50 94.23 391.97 96.08 C 403.97 97.80 415.71 103.00 424.16 111.85 C 435.02 122.49 440.39 137.98 439.82 153.05 C 439.89 168.02 431.98 182.21 420.65 191.65 C 415.29 196.41 408.67 199.32 402.42 202.68 C 408.49 225.90 409.68 250.21 407.43 274.05 C 406.13 286.74 404.94 299.59 400.90 311.77 C 393.73 335.75 378.01 357.51 356.35 370.37 C 346.92 375.93 336.78 380.14 326.92 384.87 C 315.34 390.00 303.88 395.39 292.15 400.17 C 280.84 404.72 269.56 410.99 257.00 410.59 C 248.42 410.77 240.13 408.10 232.45 404.49 C 221.44 399.27 210.54 393.81 199.63 388.38 C 186.71 381.69 173.48 375.53 161.14 367.77 C 147.19 359.26 134.42 348.66 124.10 335.94 C 108.94 316.55 99.49 292.79 97.20 268.28 C 94.68 245.72 97.11 222.85 102.76 200.92 C 88.04 192.57 76.88 178.05 73.28 161.45 C 70.05 147.85 71.30 132.79 78.59 120.68 C 85.69 108.29 98.39 99.35 112.38 96.61 Z" fill="#fbf9fa" opacity="1.00" stroke="#fbf9fa" stroke-width="0.25"/>
<path d="M 362.97 110.10 C 372.32 104.43 383.84 101.81 394.62 104.38 C 408.65 107.09 420.99 116.77 427.36 129.51 C 434.15 142.64 434.59 159.30 427.25 172.30 C 420.54 185.30 407.25 193.93 393.12 196.83 C 396.68 209.32 399.42 222.07 400.57 235.02 C 402.16 252.55 400.91 270.23 398.44 287.62 C 395.13 310.27 386.66 332.85 370.64 349.61 C 362.05 359.17 350.73 365.68 339.18 371.00 C 324.84 377.90 310.22 384.18 295.76 390.81 C 284.42 395.55 273.23 401.29 260.97 403.17 C 248.88 404.69 237.67 399.04 227.12 393.95 C 205.00 383.03 182.70 372.31 161.66 359.39 C 142.51 346.91 125.31 330.24 115.90 309.11 C 101.70 279.33 100.69 244.87 107.12 212.96 C 108.01 207.58 109.90 202.45 111.01 197.13 C 109.68 195.97 108.01 195.31 106.50 194.44 C 93.26 187.39 83.26 174.40 80.21 159.67 C 77.19 146.87 78.95 132.57 86.72 121.72 C 92.79 113.50 101.60 107.25 111.55 104.73 C 123.83 101.32 137.39 104.92 147.24 112.76 C 155.20 118.86 160.43 127.68 164.60 136.63 C 179.73 130.32 195.32 123.73 211.99 123.57 C 234.67 123.41 257.35 123.35 280.03 123.32 C 301.55 123.44 321.68 131.90 341.81 138.44 C 346.07 127.33 352.54 116.42 362.97 110.10 Z" fill="#11081d" opacity="1.00" stroke="#11081d" stroke-width="0.25"/>
<path d="M 101.95 113.92 C 111.68 107.77 124.37 106.36 135.01 110.99 C 147.00 115.84 155.17 126.85 160.23 138.36 C 156.21 140.15 152.48 142.76 148.17 143.80 C 143.83 141.88 139.89 138.72 134.98 138.34 C 127.84 137.16 121.01 141.26 116.57 146.57 C 111.54 152.58 109.70 161.01 111.42 168.63 C 112.21 173.28 114.50 177.52 115.44 182.12 C 115.13 185.57 113.55 188.78 112.59 192.09 C 102.99 187.43 94.27 180.25 89.62 170.47 C 84.54 161.34 82.36 150.54 84.15 140.20 C 86.07 129.49 92.46 119.43 101.95 113.92 Z" fill="#1cafc9" opacity="1.00" stroke="#1cafc9" stroke-width="0.25"/>
<path d="M 358.52 119.52 C 365.04 113.12 373.80 108.90 382.97 108.36 C 397.75 107.24 412.51 115.17 420.52 127.51 C 425.76 135.89 428.76 146.15 426.93 156.03 C 425.41 164.70 422.10 173.44 415.66 179.66 C 409.44 186.13 401.25 190.78 392.33 192.13 C 391.73 190.42 391.14 188.72 390.56 187.01 C 395.59 180.05 398.92 171.64 398.72 162.96 C 398.95 153.78 393.54 144.91 385.59 140.47 C 380.60 137.64 374.47 137.60 369.02 138.87 C 364.59 139.93 361.27 143.38 357.04 144.80 C 353.28 143.54 349.86 141.47 346.26 139.84 C 349.45 132.60 352.95 125.28 358.52 119.52 Z" fill="#1cafc9" opacity="1.00" stroke="#1cafc9" stroke-width="0.25"/>
<path d="M 180.07 135.18 C 191.19 130.81 202.98 127.62 215.02 127.78 C 234.68 127.76 254.34 127.67 274.00 127.57 C 294.53 127.36 314.49 133.31 333.49 140.57 C 341.76 143.34 349.97 146.36 357.80 150.23 C 362.96 146.06 369.04 142.04 375.96 142.29 C 384.77 142.38 392.02 150.01 393.65 158.32 C 395.44 166.71 392.09 175.12 387.93 182.27 C 384.24 175.70 380.55 169.07 375.89 163.11 C 373.73 160.28 370.50 158.64 367.85 156.35 C 373.91 161.14 376.60 168.60 379.66 175.42 C 392.22 202.98 398.25 233.74 395.70 264.00 C 394.84 286.06 390.58 308.47 380.02 328.07 C 372.10 343.39 358.88 355.69 343.50 363.34 C 325.72 372.27 307.39 380.04 289.27 388.23 C 278.28 392.78 267.17 398.63 254.97 398.42 C 243.58 397.16 233.38 391.48 223.15 386.72 C 206.99 378.72 190.82 370.72 175.09 361.90 C 161.47 354.06 148.24 345.12 137.59 333.44 C 126.05 320.49 117.65 304.82 113.11 288.09 C 107.21 267.80 106.14 246.14 109.49 225.30 C 111.45 210.36 115.81 195.87 120.52 181.59 C 122.69 175.12 125.67 168.97 128.81 162.92 C 125.28 167.69 122.28 172.80 119.39 177.98 C 115.59 170.72 113.84 161.85 117.04 154.05 C 119.84 147.08 127.11 141.12 134.97 142.62 C 140.00 143.12 143.80 146.62 148.02 148.96 C 158.43 143.78 169.13 139.16 180.07 135.18 Z" fill="#f0af64" opacity="1.00" stroke="#f0af64" stroke-width="0.25"/>
<path d="M 154.12 199.07 C 164.93 191.97 178.97 192.40 190.91 196.13 C 196.13 197.95 201.95 199.59 205.38 204.28 C 203.29 204.93 201.08 204.84 199.11 203.85 C 188.44 199.11 176.28 196.18 164.69 198.87 C 160.55 199.61 157.42 202.94 153.32 203.64 C 151.32 202.59 152.45 199.84 154.12 199.07 Z" fill="#11081d" opacity="1.00" stroke="#11081d" stroke-width="0.25"/>
<path d="M 298.22 201.71 C 306.98 196.80 316.87 193.26 327.03 193.58 C 333.28 193.79 339.63 195.54 344.73 199.26 C 346.40 200.30 346.02 202.51 346.45 204.16 C 341.42 203.25 337.52 199.45 332.46 198.63 C 325.99 197.52 319.24 198.01 312.97 199.95 C 308.21 201.28 303.83 203.64 299.10 205.05 C 298.88 204.21 298.44 202.54 298.22 201.71 Z" fill="#11081d" opacity="1.00" stroke="#11081d" stroke-width="0.25"/>
<path d="M 334.79 222.45 C 336.74 219.57 337.73 213.94 342.07 214.37 C 344.20 218.10 340.59 221.70 339.19 225.02 C 341.39 227.81 343.58 230.63 345.25 233.79 C 347.10 231.78 349.41 228.09 352.44 230.58 C 354.26 234.45 349.71 236.89 347.30 239.03 C 347.36 246.23 345.53 253.99 339.98 258.98 C 333.77 264.97 323.35 265.58 316.28 260.76 C 309.09 255.96 306.02 246.36 307.97 238.10 C 309.72 231.21 314.52 224.90 321.28 222.30 C 325.61 220.59 330.40 221.35 334.79 222.45 Z" fill="#11081d" opacity="1.00" stroke="#11081d" stroke-width="0.25"/>
<path d="M 154.32 216.33 C 158.42 214.91 160.08 219.92 162.15 222.41 C 167.90 220.17 174.56 219.68 180.05 222.94 C 190.76 227.89 195.05 242.18 189.55 252.45 C 186.48 258.19 180.70 262.67 174.09 263.24 C 165.10 264.30 156.11 258.39 153.04 249.97 C 151.23 245.51 151.63 240.63 151.95 235.95 C 149.23 233.69 145.76 231.44 146.29 227.37 C 149.31 226.94 152.01 228.12 154.23 230.09 C 155.36 228.77 156.49 227.46 157.63 226.15 C 156.01 223.09 153.48 220.03 154.32 216.33 Z" fill="#11081d" opacity="1.00" stroke="#11081d" stroke-width="0.25"/>
<path d="M 175.64 232.31 C 173.54 230.00 175.66 225.54 178.94 226.66 C 182.13 227.37 182.04 230.91 181.38 233.40 C 179.47 233.41 176.75 234.48 175.64 232.31 Z" fill="#fbf9fa" opacity="1.00" stroke="#fbf9fa" stroke-width="0.25"/>
<path d="M 240.36 230.21 C 254.52 229.28 269.17 232.00 281.20 239.80 C 294.31 248.32 304.41 261.95 307.36 277.45 C 310.13 291.90 308.45 307.74 300.29 320.25 C 294.74 328.97 286.66 336.31 276.92 339.98 C 269.24 342.59 261.09 343.64 253.00 343.57 C 244.26 343.68 235.30 343.21 227.10 339.94 C 216.26 335.72 207.54 327.23 201.54 317.41 C 192.41 302.22 191.96 283.04 197.19 266.43 C 201.08 255.48 207.49 244.96 217.05 238.09 C 223.84 233.27 232.08 230.70 240.36 230.21 Z" fill="#11081d" opacity="1.00" stroke="#11081d" stroke-width="0.25"/>
<path d="M 240.38 234.39 C 257.90 232.74 276.29 238.62 288.63 251.37 C 307.71 269.79 309.87 303.28 292.56 323.57 C 286.88 330.65 278.71 335.60 269.87 337.60 C 258.79 340.19 247.18 339.87 236.00 338.08 C 224.15 336.18 214.32 328.05 207.41 318.61 C 197.66 304.78 196.18 286.49 200.47 270.45 C 203.61 259.68 209.53 249.45 218.41 242.42 C 224.60 237.42 232.50 234.87 240.38 234.39 Z" fill="#fbf9fa" opacity="1.00" stroke="#fbf9fa" stroke-width="0.25"/>
<path d="M 331.49 235.32 C 335.30 232.88 339.56 239.20 336.08 242.06 C 333.89 245.00 328.77 242.42 329.25 239.00 C 329.04 237.32 329.95 235.94 331.49 235.32 Z" fill="#fbf9fa" opacity="1.00" stroke="#fbf9fa" stroke-width="0.25"/>
<path d="M 162.57 236.37 C 164.05 234.99 167.23 235.14 167.94 237.31 C 169.69 239.94 167.21 244.07 164.03 243.40 C 160.95 242.86 159.97 238.07 162.57 236.37 Z" fill="#fbf9fa" opacity="1.00" stroke="#fbf9fa" stroke-width="0.25"/>
<path d="M 229.95 240.96 C 241.37 237.60 253.62 237.61 265.24 239.89 C 270.72 241.13 276.67 243.15 279.78 248.20 C 282.63 252.43 283.26 258.59 279.56 262.54 C 277.53 265.10 274.01 264.28 271.19 264.20 C 269.82 269.02 268.71 274.34 264.95 277.95 C 261.35 281.14 256.34 281.73 251.76 282.37 C 252.16 288.84 252.04 295.32 252.25 301.80 C 256.75 304.94 262.61 307.31 267.99 304.84 C 274.51 302.30 278.00 295.96 281.32 290.24 C 282.44 290.41 283.55 290.59 284.67 290.78 C 285.17 294.86 282.56 298.23 280.35 301.36 C 276.05 307.00 269.39 311.66 261.98 310.92 C 257.91 310.98 254.42 308.81 250.82 307.27 C 248.73 307.89 246.93 309.18 244.90 309.94 C 236.99 312.61 227.80 309.95 222.51 303.50 C 218.97 299.05 214.44 293.59 216.71 287.52 C 218.12 287.64 220.26 287.20 220.74 289.04 C 222.89 293.97 224.90 299.27 229.34 302.64 C 234.63 307.18 243.17 306.68 248.13 301.92 C 248.32 295.34 248.06 288.74 248.16 282.16 C 244.26 281.46 239.87 281.04 236.93 278.07 C 233.18 274.39 232.76 268.90 230.96 264.22 C 228.44 264.32 225.53 265.38 223.33 263.65 C 219.83 261.08 218.59 256.35 219.20 252.21 C 219.71 246.54 224.74 242.38 229.95 240.96 Z" fill="#11081d" opacity="1.00" stroke="#11081d" stroke-width="0.25"/>
<path d="M 225.80 248.75 C 232.81 242.25 242.98 241.81 252.02 241.85 C 259.70 242.45 268.18 242.97 274.35 248.16 C 263.02 244.44 250.92 242.88 239.04 244.14 C 234.30 244.54 229.95 246.55 225.80 248.75 Z" fill="#fbf9fa" opacity="1.00" stroke="#fbf9fa" stroke-width="0.25"/>
</svg>